<svg width="80" height="80" viewBox="0 0 80 80" fill="none" xmlns="http://www.w3.org/2000/svg">
<g clip-path="url(#clip0_1853_9441)">
<path d="M20.8318 61.7704C15.4953 61.7704 10.7485 58.3536 9.02485 53.2668L8.90827 52.8835C8.50177 51.5364 8.33147 50.4035 8.33147 49.2701V26.5425L0.244728 53.5366C-0.795337 57.507 1.57472 61.6233 5.55125 62.7201L57.0961 76.5242C57.7394 76.6908 58.3828 76.7708 59.0163 76.7708C62.3361 76.7708 65.3696 74.5673 66.2199 71.3202L69.2229 61.7704H20.8318Z" fill="#A5A5A5"/>
<path d="M29.9991 26.7696C33.6759 26.7696 36.6655 23.7794 36.6655 20.1026C36.6655 16.4257 33.6759 13.4355 29.9991 13.4355C26.3222 13.4355 23.332 16.4257 23.332 20.1026C23.332 23.7794 26.3222 26.7696 29.9991 26.7696Z" fill="#A5A5A5"/>
<path d="M71.6666 3.43555H21.6654C17.0724 3.43555 13.332 7.17587 13.332 11.7695V48.4366C13.332 53.0303 17.0724 56.7706 21.6654 56.7706H71.6666C76.2602 56.7706 80.0005 53.0303 80.0005 48.4366V11.7695C80.0005 7.17587 76.2602 3.43555 71.6666 3.43555ZM21.6654 10.1026H71.6666C72.587 10.1026 73.3335 10.8491 73.3335 11.7695V35.4334L62.8035 23.1461C61.6865 21.8363 60.0696 21.1362 58.3331 21.0965C56.6064 21.1063 54.9865 21.8729 53.8799 23.1998L41.4992 38.0598L37.4659 34.0363C35.1862 31.7566 31.4758 31.7566 29.1991 34.0363L19.9991 43.2333V11.7695C19.9991 10.8491 20.7455 10.1026 21.6654 10.1026Z" fill="#A5A5A5"/>
</g>
<defs>
<clipPath id="clip0_1853_9441">
<rect width="80" height="80" fill="white"/>
</clipPath>
</defs>
</svg>
