<svg width="24" height="30" fill="none" xmlns="http://www.w3.org/2000/svg">
    <path d="M12.288 6.768c1.323 0 2.983-.895 3.971-2.088.895-1.081 1.548-2.592 1.548-4.102 0-.205-.019-.41-.056-.578-1.473.056-3.245.988-4.307 2.238-.84.95-1.604 2.442-1.604 3.971 0 .224.037.448.056.522.093.019.242.037.392.037ZM7.626 29.33c1.809 0 2.61-1.212 4.867-1.212 2.293 0 2.797 1.175 4.81 1.175 1.977 0 3.3-1.828 4.55-3.618 1.398-2.05 1.976-4.064 2.014-4.158-.13-.037-3.916-1.584-3.916-5.929 0-3.766 2.983-5.463 3.151-5.594-1.976-2.834-4.978-2.909-5.799-2.909-2.219 0-4.027 1.343-5.165 1.343-1.23 0-2.852-1.268-4.773-1.268C3.711 7.16 0 10.18 0 15.886c0 3.543 1.38 7.29 3.077 9.715 1.454 2.05 2.722 3.729 4.55 3.729Z" fill="#000"/>
</svg>
