<svg width="14" height="25" viewBox="0 0 14 25" fill="none" xmlns="http://www.w3.org/2000/svg">
<path d="M13.4728 0.00520167L10.1148 0C6.34228 0 3.90429 2.41487 3.90429 6.15253V8.98926H0.528007C0.236256 8.98926 0 9.21762 0 9.49929V13.6094C0 13.8911 0.236526 14.1191 0.528007 14.1191H3.90429V24.4902C3.90429 24.7719 4.14055 25 4.4323 25H8.83738C9.12914 25 9.36539 24.7716 9.36539 24.4902V14.1191H13.3131C13.6048 14.1191 13.8411 13.8911 13.8411 13.6094L13.8427 9.49929C13.8427 9.36404 13.7869 9.23452 13.688 9.13881C13.5892 9.0431 13.4545 8.98926 13.3144 8.98926H9.36539V6.58453C9.36539 5.42872 9.65068 4.84197 11.2102 4.84197L13.4723 4.84119C13.7637 4.84119 14 4.61284 14 4.33143V0.514965C14 0.233815 13.764 0.00572184 13.4728 0.00520167Z" fill="#2A4E96"/>
</svg>