<svg width="96" height="95" viewBox="0 0 96 95" fill="none" xmlns="http://www.w3.org/2000/svg">
<mask id="mask0_2997_9362" style="mask-type:luminance" maskUnits="userSpaceOnUse" x="0" y="0" width="96" height="95">
<path d="M0.5 -7.62939e-06H95.5V95H0.5V-7.62939e-06Z" fill="white"/>
</mask>
<g mask="url(#mask0_2997_9362)">
<path fill-rule="evenodd" clip-rule="evenodd" d="M58.3906 70.5078C39.9452 70.5078 24.9922 55.5548 24.9922 37.1094C24.9922 18.6639 39.9452 3.71094 58.3906 3.71094C76.836 3.71094 91.7891 18.6639 91.7891 37.1094C91.7891 43.8737 89.7796 50.1626 86.3262 55.42C85.7636 56.2765 86.0018 57.4269 86.8583 57.9895C87.7148 58.5521 88.8652 58.3139 89.4278 57.4574C93.2664 51.6136 95.5 44.6199 95.5 37.1094C95.5 16.6145 78.8855 7.62939e-06 58.3906 7.62939e-06C37.8957 7.62939e-06 21.2812 16.6145 21.2812 37.1094C21.2812 57.6043 37.8957 74.2188 58.3906 74.2188C64.4947 74.2188 70.2589 72.7431 75.3422 70.1285C76.2534 69.6598 76.6122 68.5411 76.1435 67.6298C75.6748 66.7185 74.5561 66.3598 73.6448 66.8285C69.0741 69.1795 63.8903 70.5078 58.3906 70.5078Z" fill="#025250"/>
<path fill-rule="evenodd" clip-rule="evenodd" d="M28.7031 37.1094C28.7031 53.5054 41.9946 66.7969 58.3906 66.7969C59.0877 66.7969 59.4961 66.793 60.2254 66.7407C61.2475 66.6675 62.0168 65.7796 61.9436 64.7574C61.8703 63.7353 60.9824 62.9661 59.9603 63.0393C59.3581 63.0824 59.0495 63.0859 58.3906 63.0859C44.0441 63.0859 32.4141 51.4559 32.4141 37.1094C32.4141 32.7391 33.4935 28.626 35.397 25.0158C35.875 24.1094 35.5276 22.9871 34.6212 22.5091C33.7147 22.0312 32.5924 22.3785 32.1145 23.285C29.9367 27.4151 28.7031 32.1207 28.7031 37.1094ZM80.0233 54.7194C80.8587 55.3128 82.0171 55.1165 82.6104 54.2811C86.0534 49.4333 88.0781 43.5051 88.0781 37.1094C88.0781 20.7136 74.7864 7.42187 58.3906 7.42187C53.4015 7.42187 48.6961 8.65591 44.5654 10.8335C43.659 11.3114 43.3115 12.4337 43.7894 13.3402C44.2673 14.2467 45.3895 14.5941 46.296 14.1162C49.9071 12.2125 54.0201 11.1328 58.3906 11.1328C72.737 11.1328 84.3672 22.763 84.3672 37.1094C84.3672 42.71 82.5967 47.8916 79.5849 52.1323C78.9915 52.9678 79.1878 54.1261 80.0233 54.7194Z" fill="#025250"/>
<path fill-rule="evenodd" clip-rule="evenodd" d="M2.85797 92.642C6.00192 95.786 11.1354 95.786 14.2793 92.642C14.2887 92.6327 14.2979 92.6233 14.307 92.6138L38.85 67.0018C39.559 66.2619 39.534 65.0874 38.7941 64.3784C38.0542 63.6694 36.8797 63.6944 36.1707 64.4343L11.6425 90.0307C9.9466 91.7127 7.17248 91.7085 5.482 90.018L5.48195 90.018C3.79155 88.3277 3.78724 85.5534 5.4693 83.8575L30.8962 59.4902C31.636 58.7811 31.661 57.6066 30.952 56.8667C30.243 56.1269 29.0684 56.1019 28.3286 56.8109L2.88618 81.1931C2.87668 81.2022 2.86727 81.2114 2.85797 81.2207C-0.285954 84.3646 -0.286026 89.4983 2.85797 92.642Z" fill="#025250"/>
<path fill-rule="evenodd" clip-rule="evenodd" d="M31.1267 73.9729C31.8513 73.2483 31.8513 72.0735 31.1267 71.3489L24.148 64.3701C23.4233 63.6455 22.2485 63.6455 21.5239 64.3701C20.7993 65.0947 20.7993 66.2695 21.5239 66.9941L28.5027 73.9729C29.2273 74.6975 30.4021 74.6975 31.1267 73.9729Z" fill="#025250"/>
<path fill-rule="evenodd" clip-rule="evenodd" d="M47.2578 37.1094C47.2578 38.1341 48.0885 38.9648 49.1133 38.9648H49.1146C50.1393 38.9648 50.97 38.1341 50.97 37.1094C50.97 36.0846 50.1393 35.2539 49.1146 35.2539H49.1133C48.0885 35.2539 47.2578 36.0846 47.2578 37.1094Z" fill="#025250"/>
<path fill-rule="evenodd" clip-rule="evenodd" d="M56.5352 37.1094C56.5352 38.1341 57.3659 38.9648 58.3906 38.9648H58.3919C59.4167 38.9648 60.2474 38.1341 60.2474 37.1094C60.2474 36.0846 59.4167 35.2539 58.3919 35.2539H58.3906C57.3659 35.2539 56.5352 36.0846 56.5352 37.1094Z" fill="#025250"/>
<path fill-rule="evenodd" clip-rule="evenodd" d="M65.8125 37.1094C65.8125 38.1341 66.6432 38.9648 67.668 38.9648H67.6693C68.694 38.9648 69.5247 38.1341 69.5247 37.1094C69.5247 36.0846 68.694 35.2539 67.6693 35.2539H67.668C66.6432 35.2539 65.8125 36.0846 65.8125 37.1094Z" fill="#025250"/>
<path fill-rule="evenodd" clip-rule="evenodd" d="M64.7391 66.6191C63.3599 66.6191 62.1836 65.4414 62.1836 64.0345C62.1836 62.6171 63.3508 61.4498 64.7683 61.4498H65.7259C66.7506 61.4498 67.5813 60.6191 67.5813 59.5943C67.5813 55.7145 70.7263 52.5695 74.6061 52.5695C77.1628 52.5695 79.4027 53.9343 80.6337 55.9841C81.0626 56.6983 81.9151 57.0391 82.7182 56.8173C83.0459 56.7268 83.3923 56.6779 83.7525 56.6779C85.796 56.6779 87.4718 58.2588 87.6213 60.263C87.6935 61.2315 88.5004 61.9805 89.4716 61.9805C90.743 61.9805 91.7909 63.0284 91.7909 64.2998C91.7909 65.5712 90.743 66.6191 89.4716 66.6191H64.7391ZM58.4727 64.0345C58.4727 67.4544 61.2741 70.3301 64.7391 70.3301H89.4716C92.7925 70.3301 95.5019 67.6207 95.5019 64.2998C95.5019 61.5266 93.6125 59.1798 91.0553 58.4812C90.1518 55.2978 87.2251 52.967 83.7525 52.967C83.5247 52.967 83.299 52.9771 83.0758 52.9969C81.1132 50.4809 78.0498 48.8586 74.6061 48.8586C69.2942 48.8586 64.8835 52.7162 64.0226 57.7829C60.9047 58.1538 58.4727 60.8198 58.4727 64.0345Z" fill="#025250"/>
<path fill-rule="evenodd" clip-rule="evenodd" d="M8.84851 21.4989C7.46943 21.4989 6.29297 20.3211 6.29297 18.9142C6.29297 17.4969 7.46017 16.3296 8.87782 16.3296H9.83543C10.8602 16.3296 11.6909 15.4988 11.6909 14.4741C11.6909 10.5943 14.8359 7.44929 18.7157 7.44929C21.2724 7.44929 23.5121 8.81402 24.7433 10.8639C25.1723 11.5781 26.0247 11.9188 26.8278 11.6971C27.1555 11.6066 27.5017 11.5577 27.8621 11.5577C29.29 11.5577 30.54 12.3283 31.2155 13.4852C31.7322 14.3701 32.8685 14.6686 33.7534 14.1519C34.6384 13.6352 34.9369 12.499 34.4202 11.614C33.107 9.36503 30.6631 7.84674 27.8621 7.84674C27.6342 7.84674 27.4084 7.85686 27.1853 7.87668C25.2226 5.3607 22.1594 3.73836 18.7157 3.73836C13.4038 3.73836 8.99303 7.59601 8.13212 12.6627C5.01417 13.0336 2.58203 15.6995 2.58203 18.9142C2.58203 22.3342 5.3837 25.2098 8.84851 25.2098H25.6095C26.6343 25.2098 27.465 24.3791 27.465 23.3544C27.465 22.3296 26.6343 21.4989 25.6095 21.4989H8.84851Z" fill="#025250"/>
<path fill-rule="evenodd" clip-rule="evenodd" d="M36.8477 17.4298C36.8477 18.4546 37.6784 19.2853 38.7031 19.2853H38.7044C39.7292 19.2853 40.5599 18.4546 40.5599 17.4298C40.5599 16.4051 39.7292 15.5743 38.7044 15.5743H38.7031C37.6784 15.5743 36.8477 16.4051 36.8477 17.4298Z" fill="#025250"/>
</g>
</svg>
