<svg width="95" height="95" viewBox="0 0 95 95" fill="none" xmlns="http://www.w3.org/2000/svg">
<mask id="mask0_3020_8065" style="mask-type:luminance" maskUnits="userSpaceOnUse" x="0" y="0" width="95" height="95">
<path d="M0 7.62939e-06H95V95H0V7.62939e-06Z" fill="white"/>
</mask>
<g mask="url(#mask0_3020_8065)">
<path fill-rule="evenodd" clip-rule="evenodd" d="M47.5003 87.5779C48.0365 87.5779 48.5465 87.3459 48.8989 86.9417C49.774 85.938 50.7157 84.8696 51.7075 83.7444C57.0904 77.6372 63.9496 69.8553 69.6523 61.641C70.2367 60.7992 70.028 59.6431 69.1862 59.0587C68.3445 58.4743 67.1883 58.6829 66.6039 59.5247C61.036 67.5448 54.3443 75.1386 48.9566 81.2525C48.4594 81.8167 47.9734 82.3682 47.5003 82.9064C47.0265 82.3673 46.5396 81.8148 46.0416 81.2497C40.8618 75.3719 34.4767 68.1262 29.0409 60.4443C22.5054 51.2083 17.6367 41.7326 17.6367 33.5743C17.6367 17.0812 31.0072 3.7107 47.5003 3.7107C63.9936 3.7107 77.3639 17.0812 77.3639 33.5743C77.3639 37.1812 76.4095 41.0799 74.7373 45.1499C74.3479 46.0978 74.8006 47.1819 75.7485 47.5713C76.6963 47.9608 77.7804 47.5081 78.1699 46.5602C79.9585 42.2068 81.0748 37.8153 81.0748 33.5743C81.0748 15.0317 66.0431 -0.000236511 47.5003 -0.000236511C28.9577 -0.000236511 13.9258 15.0317 13.9258 33.5743C13.9258 42.9815 19.4306 53.2874 26.0117 62.5878C31.5736 70.4479 38.1146 77.869 43.2911 83.7421C44.2837 84.8681 45.226 85.9373 46.1017 86.9417C46.4541 87.3459 46.9641 87.5779 47.5003 87.5779Z" fill="#025250"/>
<path fill-rule="evenodd" clip-rule="evenodd" d="M21.5156 33.5745C21.5156 47.9254 33.1494 59.5592 47.5004 59.5592C50.1037 59.5592 52.6923 59.168 55.1794 58.3987C56.1584 58.0959 56.7065 57.0568 56.4037 56.0778C56.1009 55.0988 55.0618 54.5507 54.0828 54.8535C51.9509 55.5129 49.7319 55.8483 47.5004 55.8483C35.1989 55.8483 25.2266 45.8759 25.2266 33.5745C25.2266 30.1966 25.9786 26.9994 27.3211 24.1352C27.7561 23.2073 27.3564 22.1025 26.4286 21.6676C25.5007 21.2327 24.3959 21.6323 23.961 22.5602C22.3927 25.9062 21.5156 29.64 21.5156 33.5745ZM69.3292 44.0233C70.2847 44.3935 71.3594 43.9191 71.7297 42.9636C72.89 39.9692 73.4853 36.7857 73.4853 33.5745C73.4853 19.2234 61.8514 7.58957 47.5004 7.58957C43.5656 7.58957 39.8316 8.46704 36.4856 10.0353C35.5577 10.4702 35.158 11.5749 35.5929 12.5028C36.0278 13.4307 37.1326 13.8304 38.0604 13.3955C40.925 12.0529 44.1224 11.3005 47.5004 11.3005C59.8019 11.3005 69.7743 21.2729 69.7743 33.5745C69.7743 36.3271 69.2641 39.0559 68.2695 41.6227C67.8992 42.5782 68.3736 43.653 69.3292 44.0233Z" fill="#025250"/>
<path fill-rule="evenodd" clip-rule="evenodd" d="M29.8929 92.7443C34.4805 94.1554 40.7052 95.0002 47.5004 95.0002C54.2957 95.0002 60.5205 94.1554 65.1081 92.7443C67.3905 92.0421 69.3727 91.1683 70.825 90.1121C72.2365 89.0854 73.4853 87.6255 73.4853 85.7223C73.4853 84.1807 72.6506 82.9184 71.6056 81.9692C70.5578 81.0175 69.1303 80.2159 67.4883 79.5442C64.191 78.1954 59.6347 77.2122 54.3629 76.7436C53.3422 76.6529 52.4411 77.4068 52.3504 78.4275C52.2597 79.4482 53.0136 80.3492 54.0343 80.44C59.0867 80.8891 63.246 81.8183 66.0833 82.9789C67.5085 83.5619 68.503 84.1643 69.1104 84.7161C69.7206 85.2704 69.7743 85.6111 69.7743 85.7223C69.7743 85.8689 69.6727 86.3615 68.6423 87.1109C67.6526 87.8307 66.1011 88.5562 64.017 89.1973C59.8715 90.4725 54.0316 91.2893 47.5004 91.2893C40.9693 91.2893 35.1295 90.4725 30.9839 89.1973C28.8998 88.5562 27.3484 87.8307 26.3586 87.1109C25.3282 86.3615 25.2266 85.8688 25.2266 85.7223C25.2266 85.6111 25.2802 85.2704 25.8905 84.7161C26.4979 84.1643 27.4924 83.5618 28.9177 82.9788C31.7549 81.8182 35.9142 80.889 40.9667 80.44C41.9874 80.3493 42.7414 79.4483 42.6507 78.4275C42.5599 77.4068 41.659 76.6529 40.6382 76.7436C35.3663 77.2121 30.81 78.1953 27.5126 79.5442C25.8706 80.2159 24.4431 81.0174 23.3953 81.9692C22.3503 82.9184 21.5156 84.1807 21.5156 85.7223C21.5156 87.6255 22.7644 89.0855 24.176 90.1121C25.6283 91.1683 27.6104 92.0422 29.8929 92.7443Z" fill="#025250"/>
<path fill-rule="evenodd" clip-rule="evenodd" d="M36.3672 33.5743C36.3672 34.5991 37.1979 35.4298 38.2227 35.4298H38.224C39.2487 35.4298 40.0794 34.5991 40.0794 33.5743C40.0794 32.5496 39.2487 31.7189 38.224 31.7189H38.2227C37.1979 31.7189 36.3672 32.5496 36.3672 33.5743Z" fill="#025250"/>
<path fill-rule="evenodd" clip-rule="evenodd" d="M45.6445 33.5743C45.6445 34.5991 46.4753 35.4298 47.5 35.4298H47.5015C48.5262 35.4298 49.357 34.5991 49.357 33.5743C49.357 32.5496 48.5262 31.7189 47.5015 31.7189H47.5C46.4753 31.7189 45.6445 32.5496 45.6445 33.5743Z" fill="#025250"/>
<path fill-rule="evenodd" clip-rule="evenodd" d="M54.9219 33.5743C54.9219 34.5991 55.7526 35.4298 56.7773 35.4298H56.7788C57.8036 35.4298 58.6343 34.5991 58.6343 33.5743C58.6343 32.5496 57.8036 31.7189 56.7788 31.7189H56.7773C55.7526 31.7189 54.9219 32.5496 54.9219 33.5743Z" fill="#025250"/>
<path fill-rule="evenodd" clip-rule="evenodd" d="M59.4149 58.5719C58.0356 58.5719 56.8594 57.3942 56.8594 55.9872C56.8594 54.5698 58.0267 53.4026 59.4439 53.4026H60.4016C61.4264 53.4026 62.2571 52.5718 62.2571 51.5471C62.2571 47.6674 65.4021 44.5223 69.2819 44.5223C71.8386 44.5223 74.0785 45.8871 75.3094 47.9368C75.7383 48.6509 76.5904 48.9916 77.3933 48.7702C77.7218 48.6797 78.0685 48.6307 78.4285 48.6307C80.4717 48.6307 82.1476 50.2117 82.2971 52.2158C82.3693 53.1843 83.1762 53.9332 84.1474 53.9332C85.4189 53.9332 86.4667 54.9811 86.4667 56.2526C86.4667 57.5241 85.4189 58.5719 84.1476 58.5719H59.4149ZM53.1484 55.9872C53.1484 59.4071 55.9496 62.2828 59.4149 62.2828H84.1476C87.4686 62.2828 90.1777 59.5733 90.1777 56.2526C90.1777 53.4794 88.2883 51.1325 85.7311 50.4339C84.8275 47.2507 81.9009 44.9197 78.4285 44.9197C78.2005 44.9197 77.9747 44.9299 77.7516 44.9497C75.789 42.4337 72.7256 40.8114 69.2819 40.8114C63.97 40.8114 59.5593 44.6691 58.6984 49.7357C55.5806 50.1065 53.1484 52.7725 53.1484 55.9872Z" fill="#025250"/>
<path fill-rule="evenodd" clip-rule="evenodd" d="M4.82422 17.9325C4.82422 21.2534 7.5336 23.9628 10.8545 23.9628H17.7568C18.7816 23.9628 19.6123 23.132 19.6123 22.1073C19.6123 21.0826 18.7816 20.2518 17.7568 20.2518H10.8545C9.5831 20.2518 8.53516 19.2039 8.53516 17.9325C8.53516 16.6612 9.58304 15.6132 10.8547 15.6132C11.8259 15.6132 12.6328 14.8641 12.705 13.8956C12.8544 11.8915 14.5302 10.3106 16.5736 10.3106C16.9339 10.3106 17.28 10.3595 17.6081 10.45C18.4111 10.6717 19.2634 10.331 19.6924 9.61683C20.9236 7.56688 23.1634 6.20204 25.7199 6.20204C27.3611 6.20204 28.866 6.76304 30.0618 7.70491C30.8668 8.339 32.0334 8.20043 32.6675 7.39542C33.3016 6.59041 33.163 5.42379 32.358 4.78971C30.532 3.35139 28.2243 2.4911 25.7199 2.4911C22.2762 2.4911 19.213 4.11363 17.2504 6.62962C17.0272 6.60979 16.8015 6.59966 16.5736 6.59966C13.1013 6.59966 10.1743 8.93043 9.2709 12.1139C6.71368 12.8125 4.82422 15.1592 4.82422 17.9325Z" fill="#025250"/>
<path fill-rule="evenodd" clip-rule="evenodd" d="M29.1255 17.8247C29.8501 18.5493 31.0249 18.5493 31.7495 17.8247L31.7504 17.8238C32.475 17.0992 32.475 15.9244 31.7504 15.1998C31.0258 14.4751 29.851 14.4751 29.1264 15.1998L29.1255 15.2007C28.4009 15.9253 28.4009 17.1001 29.1255 17.8247Z" fill="#025250"/>
</g>
</svg>
