<svg width="105" height="95" viewBox="0 0 105 95" fill="none" xmlns="http://www.w3.org/2000/svg">
<path fill-rule="evenodd" clip-rule="evenodd" d="M72.5685 73.8636C72.5188 83.1704 64.948 90.7099 55.6304 90.7099C48.4385 90.7099 42.2883 86.2179 39.8323 79.8896C39.5085 79.0562 38.5704 78.6428 37.7369 78.9656C36.9035 79.2894 36.4901 80.2286 36.8129 81.0609C39.7384 88.5994 47.0642 93.9486 55.6304 93.9486C66.7303 93.9486 75.7477 84.9667 75.8071 73.8809C75.8125 72.9881 75.0903 72.2583 74.1964 72.2529C73.3026 72.2486 72.5739 72.9708 72.5685 73.8636ZM47.5856 15.9277C47.2283 14.982 47.0329 13.9575 47.0329 12.8877C47.0329 8.14305 50.8847 4.29015 55.6304 4.29015C60.3761 4.29015 64.229 8.14305 64.229 12.8877C64.229 13.9575 64.0336 14.982 63.6752 15.9277C63.3589 16.7632 63.781 17.6992 64.6165 18.0155C65.4521 18.3318 66.3881 17.9108 66.7044 17.0741C67.1967 15.7722 67.4676 14.3612 67.4676 12.8877C67.4676 6.35532 62.1638 1.05151 55.6304 1.05151C49.0981 1.05151 43.7943 6.35532 43.7943 12.8877C43.7943 14.3612 44.0642 15.7722 44.5575 17.0741C44.8738 17.9108 45.8087 18.3318 46.6454 18.0155C47.4809 17.6992 47.9019 16.7632 47.5856 15.9277Z" fill="#025250"/>
<path fill-rule="evenodd" clip-rule="evenodd" d="M48.7195 75.3879C69.9757 75.3923 81.5387 75.3912 96.0241 75.3912C97.6337 75.3901 99.0695 74.3775 99.6103 72.8618C100.151 71.3461 99.6816 69.6556 98.439 68.6365C93.3176 64.2589 86.5381 55.1681 84.6694 37.4408C82.2545 14.5372 60.3516 13.6725 56.2342 13.7232C55.3414 13.734 54.6246 14.4692 54.6354 15.362C54.6462 16.2558 55.3813 16.9727 56.2752 16.9619C59.9068 16.9165 79.3181 17.574 81.448 37.7798C83.4495 56.7615 90.8606 66.4234 96.3576 71.1183C96.3663 71.1248 96.3749 71.1324 96.3836 71.1399C96.5703 71.2922 96.6416 71.5458 96.5606 71.7736C96.4785 72.0003 96.2637 72.1525 96.023 72.1525C81.5387 72.1525 69.9757 72.1536 48.7195 72.1493C47.8256 72.1493 47.1001 72.8748 47.1001 73.7686C47.1001 74.6625 47.8256 75.3879 48.7195 75.3879ZM49.8098 14.086C41.8255 15.2324 28.4478 19.8205 26.5909 37.4408C24.7222 55.1605 17.9481 64.2503 12.817 68.6473C11.5799 69.6718 11.1178 71.3526 11.6543 72.8596C12.1952 74.3732 13.6288 75.3836 15.2363 75.3836C17.4396 75.3847 39.4041 75.3869 42.3231 75.3869C43.217 75.388 43.9425 74.6625 43.9425 73.7686C43.9435 72.8748 43.2181 72.1493 42.3242 72.1482C39.4051 72.1482 17.4407 72.1461 15.2363 72.145C14.9977 72.145 14.785 71.9949 14.7051 71.7704C14.6253 71.5469 14.6943 71.2954 14.8789 71.1453C14.8887 71.1378 14.8973 71.1302 14.907 71.1216C20.3997 66.4223 27.8108 56.7604 29.8112 37.7798C31.4446 22.2883 43.2505 18.2994 50.2708 17.2911C51.1549 17.1648 51.7703 16.3433 51.6429 15.4591C51.5166 14.5739 50.695 13.9586 49.8098 14.086Z" fill="#025250"/>
<path fill-rule="evenodd" clip-rule="evenodd" d="M93.1758 2.67083V15.3695C93.1758 16.2634 93.9012 16.9888 94.7951 16.9888C95.689 16.9888 96.4144 16.2634 96.4144 15.3695V2.67083C96.4144 1.77697 95.689 1.05151 94.7951 1.05151C93.9012 1.05151 93.1758 1.77697 93.1758 2.67083Z" fill="#025250"/>
<path fill-rule="evenodd" clip-rule="evenodd" d="M5.61719 44.5561V53.3425C5.61719 54.2364 6.34264 54.9618 7.23651 54.9618C8.13037 54.9618 8.85582 54.2364 8.85582 53.3425V44.5561C8.85582 43.6622 8.13037 42.9368 7.23651 42.9368C6.34264 42.9368 5.61719 43.6622 5.61719 44.5561Z" fill="#025250"/>
<path fill-rule="evenodd" clip-rule="evenodd" d="M88.4435 10.6389H101.142C102.035 10.6389 102.762 9.91345 102.762 9.01959C102.762 8.12572 102.035 7.40027 101.142 7.40027H88.4435C87.5497 7.40027 86.8242 8.12572 86.8242 9.01959C86.8242 9.91345 87.5497 10.6389 88.4435 10.6389Z" fill="#025250"/>
<path fill-rule="evenodd" clip-rule="evenodd" d="M2.84197 50.5681H11.6284C12.5223 50.5681 13.2477 49.8426 13.2477 48.9488C13.2477 48.0549 12.5223 47.3295 11.6284 47.3295H2.84197C1.94811 47.3295 1.22266 48.0549 1.22266 48.9488C1.22266 49.8426 1.94811 50.5681 2.84197 50.5681Z" fill="#025250"/>
<path fill-rule="evenodd" clip-rule="evenodd" d="M18.3875 6.84106C15.0495 6.84106 12.3398 9.55072 12.3398 12.8876C12.3398 16.2256 15.0495 18.9352 18.3875 18.9352C21.7243 18.9352 24.434 16.2256 24.434 12.8876C24.434 9.55072 21.7243 6.84106 18.3875 6.84106ZM18.3875 10.0797C19.9366 10.0797 21.1954 11.3385 21.1954 12.8876C21.1954 14.4378 19.9366 15.6966 18.3875 15.6966C16.8372 15.6966 15.5785 14.4378 15.5785 12.8876C15.5785 11.3385 16.8372 10.0797 18.3875 10.0797Z" fill="#025250"/>
<path fill-rule="evenodd" clip-rule="evenodd" d="M97.7312 35.0421C94.3933 35.0421 91.6836 37.7518 91.6836 41.0887C91.6836 44.4266 94.3933 47.1363 97.7312 47.1363C101.068 47.1363 103.778 44.4266 103.778 41.0887C103.778 37.7518 101.068 35.0421 97.7312 35.0421ZM97.7312 38.2808C99.2804 38.2808 100.539 39.5384 100.539 41.0887C100.539 42.6389 99.2804 43.8976 97.7312 43.8976C96.181 43.8976 94.9222 42.6389 94.9222 41.0887C94.9222 39.5384 96.181 38.2808 97.7312 38.2808Z" fill="#025250"/>
</svg>
