<svg width="95" height="95" viewBox="0 0 95 95" fill="none" xmlns="http://www.w3.org/2000/svg">
<mask id="mask0_3020_8318" style="mask-type:luminance" maskUnits="userSpaceOnUse" x="0" y="0" width="95" height="95">
<path d="M0 7.62939e-06H95V95H0V7.62939e-06Z" fill="white"/>
</mask>
<g mask="url(#mask0_3020_8318)">
<path fill-rule="evenodd" clip-rule="evenodd" d="M11.832 93.1443C11.832 94.169 12.6628 94.9998 13.6875 94.9998H62.0087C62.5008 94.9998 62.9728 94.8043 63.3208 94.4563L82.621 75.1559C82.9689 74.8079 83.1644 74.336 83.1644 73.8439V22.2658C83.1644 21.241 82.3337 20.4103 81.3089 20.4103C80.2842 20.4103 79.4535 21.241 79.4535 22.2658V73.0753L61.2402 91.2888H15.543V87.5775C15.543 86.5528 14.7122 85.722 13.6875 85.722C12.6628 85.722 11.832 86.5528 11.832 87.5775V93.1443ZM13.6875 74.5892C14.7122 74.5892 15.543 73.7585 15.543 72.7338V3.71069H79.4535V7.422C79.4535 8.44674 80.2842 9.27747 81.3089 9.27747C82.3337 9.27747 83.1644 8.44674 83.1644 7.422V1.85522C83.1644 0.830475 82.3337 -0.000244141 81.3089 -0.000244141H13.6875C12.6628 -0.000244141 11.832 0.830475 11.832 1.85522V72.7338C11.832 73.7585 12.6628 74.5892 13.6875 74.5892Z" fill="#025250"/>
<path fill-rule="evenodd" clip-rule="evenodd" d="M61.2978 94.8587C61.9911 95.1459 62.7892 94.9872 63.3198 94.4565L82.6202 75.1561C83.1509 74.6254 83.3096 73.8274 83.0224 73.134C82.7352 72.4407 82.0587 71.9886 81.3082 71.9886H62.0078C60.9831 71.9886 60.1523 72.8193 60.1523 73.8441V93.1445C60.1523 93.8949 60.6044 94.5715 61.2978 94.8587ZM63.8633 88.665V75.6995H76.8287L63.8633 88.665Z" fill="#025250"/>
<path fill-rule="evenodd" clip-rule="evenodd" d="M68.2891 57.0136C68.9321 56.2156 68.8064 55.0475 68.0084 54.4046C62.8402 50.2405 55.526 47.7002 47.4962 47.7002C39.4668 47.7002 32.1526 50.2405 26.9844 54.4044C26.1864 55.0473 26.0607 56.2154 26.7036 57.0133C27.3466 57.8113 28.5146 57.937 29.3126 57.2941C33.7483 53.7203 40.2154 51.4111 47.4962 51.4111C54.7774 51.4111 61.2445 53.7203 65.6802 57.2943C66.4781 57.9372 67.6462 57.8115 68.2891 57.0136ZM54.5221 33.6591C55.2467 34.3837 56.4215 34.3837 57.1461 33.6591L61.3392 29.4661L65.5323 33.6591C66.2569 34.3837 67.4317 34.3837 68.1563 33.6591C68.8809 32.9345 68.8809 31.7597 68.1563 31.0351L63.9632 26.842L68.1563 22.649C68.8809 21.9244 68.8809 20.7496 68.1563 20.0249C67.4317 19.3003 66.2569 19.3003 65.5323 20.0249L61.3392 24.218L57.1461 20.0249C56.4215 19.3003 55.2467 19.3003 54.5221 20.0249C53.7975 20.7496 53.7975 21.9244 54.5221 22.649L58.7152 26.842L54.5221 31.0351C53.7975 31.7597 53.7975 32.9345 54.5221 33.6591ZM26.8365 33.6592C27.5611 34.3838 28.7359 34.3837 29.4605 33.6591L33.6535 29.4661L37.8465 33.6591C38.5711 34.3837 39.7459 34.3838 40.4705 33.6592C41.1951 32.9346 41.1951 31.7597 40.4705 31.0351L36.2775 26.842L40.4705 22.649C41.1951 21.9244 41.1951 20.7495 40.4705 20.0249C39.7459 19.3003 38.5711 19.3004 37.8465 20.025L33.6535 24.218L29.4605 20.025C28.7359 19.3004 27.5611 19.3003 26.8365 20.0249C26.1119 20.7495 26.1119 21.9244 26.8365 22.649L31.0295 26.842L26.8365 31.0351C26.1119 31.7597 26.1119 32.9346 26.8365 33.6592Z" fill="#025250"/>
<path fill-rule="evenodd" clip-rule="evenodd" d="M13.6875 82.0112C14.7095 82.0112 15.543 81.1778 15.543 80.1558C15.543 79.1336 14.7095 78.3003 13.6875 78.3003C12.6655 78.3003 11.832 79.1336 11.832 80.1558C11.832 81.1778 12.6655 82.0112 13.6875 82.0112Z" fill="#025250"/>
<path fill-rule="evenodd" clip-rule="evenodd" d="M81.3086 16.6996C82.3308 16.6996 83.1642 15.8661 83.1642 14.8441C83.1642 13.8221 82.3308 12.9886 81.3086 12.9886C80.2866 12.9886 79.4531 13.8221 79.4531 14.8441C79.4531 15.8661 80.2866 16.6996 81.3086 16.6996Z" fill="#025250"/>
</g>
</svg>
